<mxfile host="app.diagrams.net" modified="2022-11-06T15:28:44.949Z" agent="5.0 (Windows NT 10.0; Win64; x64) AppleWebKit/537.36 (KHTML, like Gecko) Chrome/107.0.0.0 Safari/537.36" etag="cEE_1yoScT3r2mhcf_vx" version="20.5.2" type="github">
  <diagram id="hVbtl7FPcw7vtAX6ZH5k" name="Page-1">
    <mxGraphModel dx="1088" dy="394" grid="1" gridSize="10" guides="1" tooltips="1" connect="1" arrows="1" fold="1" page="1" pageScale="1" pageWidth="1920" pageHeight="1200" math="0" shadow="0">
      <root>
        <mxCell id="0" />
        <mxCell id="1" parent="0" />
        <mxCell id="HenQluoztU_BCCj_yWCk-92" value="Entrance" style="whiteSpace=wrap;html=1;aspect=fixed;fillColor=none;" vertex="1" parent="1">
          <mxGeometry x="80" y="470" width="110" height="110" as="geometry" />
        </mxCell>
        <mxCell id="HenQluoztU_BCCj_yWCk-93" value="Hospital" style="whiteSpace=wrap;html=1;aspect=fixed;fillColor=none;" vertex="1" parent="1">
          <mxGeometry x="220" y="470" width="110" height="110" as="geometry" />
        </mxCell>
        <mxCell id="HenQluoztU_BCCj_yWCk-95" value="Dining" style="whiteSpace=wrap;html=1;aspect=fixed;fillColor=none;" vertex="1" parent="1">
          <mxGeometry x="500" y="610" width="110" height="110" as="geometry" />
        </mxCell>
        <mxCell id="HenQluoztU_BCCj_yWCk-96" value="Bedrooms" style="rounded=0;whiteSpace=wrap;html=1;fillColor=none;" vertex="1" parent="1">
          <mxGeometry x="360" y="610" width="110" height="220" as="geometry" />
        </mxCell>
        <mxCell id="HenQluoztU_BCCj_yWCk-97" value="Stockpile" style="whiteSpace=wrap;html=1;aspect=fixed;fillColor=none;" vertex="1" parent="1">
          <mxGeometry x="360" y="330" width="110" height="110" as="geometry" />
        </mxCell>
        <mxCell id="HenQluoztU_BCCj_yWCk-129" style="edgeStyle=orthogonalEdgeStyle;curved=1;orthogonalLoop=1;jettySize=auto;html=1;exitX=0.5;exitY=1;exitDx=0;exitDy=0;entryX=0.5;entryY=0;entryDx=0;entryDy=0;" edge="1" parent="1" source="HenQluoztU_BCCj_yWCk-98" target="HenQluoztU_BCCj_yWCk-95">
          <mxGeometry relative="1" as="geometry" />
        </mxCell>
        <mxCell id="HenQluoztU_BCCj_yWCk-98" value="Butcher&lt;br&gt;Kitchen&lt;br&gt;Freezer" style="whiteSpace=wrap;html=1;aspect=fixed;fillColor=none;" vertex="1" parent="1">
          <mxGeometry x="500" y="470" width="110" height="110" as="geometry" />
        </mxCell>
        <mxCell id="HenQluoztU_BCCj_yWCk-112" value="Prison" style="whiteSpace=wrap;html=1;aspect=fixed;fillColor=none;" vertex="1" parent="1">
          <mxGeometry x="640" y="470" width="110" height="110" as="geometry" />
        </mxCell>
        <mxCell id="HenQluoztU_BCCj_yWCk-113" value="Recreation" style="whiteSpace=wrap;html=1;aspect=fixed;fillColor=none;" vertex="1" parent="1">
          <mxGeometry x="500" y="720" width="110" height="110" as="geometry" />
        </mxCell>
        <mxCell id="HenQluoztU_BCCj_yWCk-114" value="Research" style="rounded=0;whiteSpace=wrap;html=1;fillColor=none;" vertex="1" parent="1">
          <mxGeometry x="640" y="740" width="50" height="70" as="geometry" />
        </mxCell>
        <mxCell id="HenQluoztU_BCCj_yWCk-121" style="edgeStyle=orthogonalEdgeStyle;rounded=0;orthogonalLoop=1;jettySize=auto;html=1;exitX=0;exitY=0.5;exitDx=0;exitDy=0;entryX=1;entryY=0.5;entryDx=0;entryDy=0;" edge="1" parent="1" source="HenQluoztU_BCCj_yWCk-115" target="HenQluoztU_BCCj_yWCk-116">
          <mxGeometry relative="1" as="geometry" />
        </mxCell>
        <mxCell id="HenQluoztU_BCCj_yWCk-122" style="edgeStyle=orthogonalEdgeStyle;rounded=0;orthogonalLoop=1;jettySize=auto;html=1;exitX=0.5;exitY=1;exitDx=0;exitDy=0;entryX=0.5;entryY=0;entryDx=0;entryDy=0;" edge="1" parent="1" source="HenQluoztU_BCCj_yWCk-115" target="HenQluoztU_BCCj_yWCk-97">
          <mxGeometry relative="1" as="geometry" />
        </mxCell>
        <mxCell id="HenQluoztU_BCCj_yWCk-115" value="Workshop" style="whiteSpace=wrap;html=1;aspect=fixed;fillColor=none;" vertex="1" parent="1">
          <mxGeometry x="360" y="190" width="110" height="110" as="geometry" />
        </mxCell>
        <mxCell id="HenQluoztU_BCCj_yWCk-116" value="Warehouse" style="whiteSpace=wrap;html=1;aspect=fixed;fillColor=none;" vertex="1" parent="1">
          <mxGeometry x="220" y="190" width="110" height="110" as="geometry" />
        </mxCell>
        <mxCell id="HenQluoztU_BCCj_yWCk-117" value="Explosives" style="whiteSpace=wrap;html=1;aspect=fixed;fillColor=none;" vertex="1" parent="1">
          <mxGeometry x="280" y="110" width="50" height="50" as="geometry" />
        </mxCell>
        <mxCell id="HenQluoztU_BCCj_yWCk-123" style="edgeStyle=orthogonalEdgeStyle;rounded=0;orthogonalLoop=1;jettySize=auto;html=1;exitX=0.5;exitY=1;exitDx=0;exitDy=0;entryX=0.5;entryY=0;entryDx=0;entryDy=0;" edge="1" parent="1" source="HenQluoztU_BCCj_yWCk-118" target="HenQluoztU_BCCj_yWCk-98">
          <mxGeometry relative="1" as="geometry" />
        </mxCell>
        <mxCell id="HenQluoztU_BCCj_yWCk-118" value="Livestock" style="whiteSpace=wrap;html=1;aspect=fixed;fillColor=none;" vertex="1" parent="1">
          <mxGeometry x="500" y="330" width="110" height="110" as="geometry" />
        </mxCell>
        <mxCell id="HenQluoztU_BCCj_yWCk-119" value="Crops" style="whiteSpace=wrap;html=1;aspect=fixed;fillColor=none;" vertex="1" parent="1">
          <mxGeometry x="640" y="330" width="110" height="110" as="geometry" />
        </mxCell>
        <mxCell id="HenQluoztU_BCCj_yWCk-120" value="Armory" style="whiteSpace=wrap;html=1;aspect=fixed;fillColor=none;" vertex="1" parent="1">
          <mxGeometry x="220" y="600" width="80" height="80" as="geometry" />
        </mxCell>
        <mxCell id="HenQluoztU_BCCj_yWCk-128" value="" style="endArrow=classic;html=1;curved=1;entryX=1;entryY=0;entryDx=0;entryDy=0;exitX=0;exitY=1;exitDx=0;exitDy=0;" edge="1" parent="1" source="HenQluoztU_BCCj_yWCk-119" target="HenQluoztU_BCCj_yWCk-98">
          <mxGeometry width="50" height="50" relative="1" as="geometry">
            <mxPoint x="670" y="500" as="sourcePoint" />
            <mxPoint x="720" y="450" as="targetPoint" />
          </mxGeometry>
        </mxCell>
        <mxCell id="HenQluoztU_BCCj_yWCk-131" value="" style="endArrow=classic;html=1;curved=1;entryX=1;entryY=1;entryDx=0;entryDy=0;exitX=0;exitY=0;exitDx=0;exitDy=0;" edge="1" parent="1" source="HenQluoztU_BCCj_yWCk-120" target="HenQluoztU_BCCj_yWCk-92">
          <mxGeometry width="50" height="50" relative="1" as="geometry">
            <mxPoint x="420" y="570" as="sourcePoint" />
            <mxPoint x="470" y="520" as="targetPoint" />
          </mxGeometry>
        </mxCell>
      </root>
    </mxGraphModel>
  </diagram>
</mxfile>
